<svg width="14" height="14" viewBox="0 0 14 14" fill="none" xmlns="http://www.w3.org/2000/svg">
<g id="svg">
<path id="Vector" fill-rule="evenodd" clip-rule="evenodd" d="M12.6 4.12996V4.47996C12.6 8.25996 9.73 12.67 4.41 12.67C2.8 12.67 1.26 12.18 0 11.41C0.21 11.41 0.49 11.48 0.7 11.48C2.03 11.48 3.29 10.99 4.27 10.22C3.01 10.22 1.96 9.37996 1.61 8.25996C1.82 8.25996 1.96 8.32996 2.17 8.32996C2.45 8.32996 2.73 8.32996 2.94 8.25996C1.61 7.97996 0.7 6.85996 0.7 5.45996V5.38996C0.7 5.59996 1.47 5.73996 1.96 5.73996C1.19 5.24996 0.63 4.33996 0.63 3.35996C0.63 2.79996 0.77 2.30996 1.05 1.88996C2.45 3.63996 4.55 4.75996 7 4.89996C6.86 4.61996 6.79 4.40996 6.79 4.19996C6.79 2.58996 8.05 1.32996 9.66 1.32996C10.5 1.32996 11.2 1.67996 11.76 2.23996C12.39 2.09996 13.02 1.88996 13.58 1.53996C13.37 2.23996 12.88 2.79996 12.32 3.14996C12.88 3.07996 13.44 2.93996 14 2.72996C13.58 3.21996 13.16 3.70996 12.6 4.12996Z" fill="white"/>
</g>
</svg>
