<svg width="24" height="24" viewBox="0 0 48 48" fill="none" xmlns="http://www.w3.org/2000/svg">
<g id="checkmark-outline 1" clip-path="url(#clip0_25_1368)">
<g id="Layer 2">
<g id="checkmark">
<path id="Vector" d="M19.7202 36C19.4459 35.9991 19.1748 35.9419 18.9237 35.8318C18.6725 35.7217 18.4467 35.5611 18.2602 35.36L8.54017 25.02C8.17683 24.6328 7.98218 24.1171 7.99906 23.5864C8.01594 23.0556 8.24296 22.5534 8.63017 22.19C9.01739 21.8267 9.53308 21.632 10.0638 21.6489C10.5945 21.6658 11.0968 21.8928 11.4602 22.28L19.7002 31.06L36.5202 12.66C36.6909 12.4474 36.9032 12.272 37.1442 12.1445C37.3851 12.017 37.6496 11.9401 37.9213 11.9186C38.1931 11.897 38.4664 11.9312 38.7244 12.0191C38.9825 12.107 39.2199 12.2467 39.4219 12.4297C39.624 12.6127 39.7866 12.835 39.8996 13.0831C40.0126 13.3312 40.0737 13.5997 40.0792 13.8723C40.0846 14.1448 40.0343 14.4156 39.9313 14.668C39.8283 14.9204 39.6748 15.1491 39.4802 15.34L21.2002 35.34C21.0155 35.5447 20.7904 35.709 20.5392 35.8226C20.2879 35.9362 20.0159 35.9966 19.7402 36H19.7202Z" fill="#757B67"/>
</g>
</g>
</g>
<defs>
<clipPath id="clip0_25_1368">
<rect width="48" height="48" fill="white"/>
</clipPath>
</defs>
</svg>
