<svg width="171" height="53" viewBox="0 0 171 53" fill="none" xmlns="http://www.w3.org/2000/svg">
<path d="M100.092 16.71C97.942 16.71 96.2529 17.1721 94.563 18.0945C94.563 13.1706 94.563 8.70875 94.7173 7.17053L84.424 9.01622V9.9395L85.4992 10.0932C86.8804 10.4007 87.3435 11.1694 87.6478 13.0168C87.9574 16.71 87.8022 36.4064 87.6478 39.6384C90.413 40.2542 93.3325 40.7163 96.2521 40.7163C104.394 40.7163 109.31 35.6378 109.31 27.6357C109.31 21.3273 105.316 16.71 100.092 16.71ZM96.559 39.0226C95.9442 39.0226 95.1751 39.0226 94.7156 38.8697C94.5612 36.7157 94.4086 27.6357 94.5612 19.6344C95.4829 19.3261 96.0968 19.1724 96.8659 19.1724C100.248 19.1724 102.091 23.173 102.091 28.096C102.09 34.2533 99.7855 39.0226 96.559 39.0226ZM45.7097 7.78546H18.6719V9.16995L20.2084 9.32368C22.2044 9.63115 22.9736 10.8619 23.2796 13.7855C23.7418 19.3252 23.5874 29.3285 23.2796 34.0969C22.9727 37.0214 22.2053 38.4067 20.2084 38.5587L18.6719 38.8679V40.0987H36.0312V38.8679L34.1877 38.5587C32.1908 38.4058 31.4226 37.0214 31.1156 34.0969C30.9613 32.0957 30.8078 28.8637 30.8078 24.864L34.4947 25.0178C36.7994 25.0178 37.8737 26.8643 38.3351 29.4796H39.7181V18.5574H38.3351C37.8729 21.1736 36.7994 23.0192 34.4947 23.0192L30.8087 23.1739C30.8087 17.9416 30.9621 13.0177 31.1165 10.0941H36.4925C40.6416 10.0941 42.792 12.7094 44.3276 17.3267L45.8641 16.8646L45.7097 7.78546Z" fill="#AEAEAE"/>
<path d="M54.4668 16.4025C62.1484 16.4025 65.9888 21.6348 65.9888 28.559C65.9888 35.1757 61.6871 40.7172 54.0055 40.7172C46.3247 40.7172 42.4844 35.4841 42.4844 28.559C42.4844 21.9423 46.7852 16.4025 54.4668 16.4025ZM54.0055 17.9416C50.6255 17.9416 49.7038 22.5581 49.7038 28.559C49.7038 34.4062 51.2403 39.1763 54.3133 39.1763C57.8441 39.1763 58.7676 34.5599 58.7676 28.559C58.7676 22.7118 57.2329 17.9416 54.0055 17.9416ZM111.306 28.7136C111.306 22.4043 115.3 16.4025 123.135 16.4025C129.585 16.4025 132.659 21.1736 132.659 27.482H118.372C118.218 33.1754 120.983 37.3306 126.514 37.3306C128.972 37.3306 130.201 36.7166 131.738 35.6387L132.351 36.4074C130.815 38.5614 127.436 40.7172 123.135 40.7172C116.221 40.7163 111.306 35.7924 111.306 28.7136ZM118.372 25.79L125.592 25.6354C125.592 22.5581 125.131 17.9416 122.52 17.9416C119.909 17.9416 118.524 22.2497 118.372 25.79ZM150.943 17.6342C149.099 16.8637 146.642 16.4025 143.877 16.4025C138.194 16.4025 134.659 19.7873 134.659 23.7888C134.659 27.7903 137.268 29.4823 140.959 30.7139C144.799 32.0975 145.875 33.1754 145.875 35.022C145.875 36.8686 144.492 38.5605 142.033 38.5605C139.116 38.5605 136.963 36.8686 135.274 32.2512L134.198 32.5605L134.353 39.331C136.196 40.0996 139.575 40.7163 142.495 40.7163C148.486 40.7163 152.328 37.6372 152.328 32.868C152.328 29.636 150.637 27.7903 146.643 26.2503C142.34 24.5584 140.806 23.4814 140.806 21.4802C140.806 19.4799 142.19 18.0945 144.034 18.0945C146.797 18.0945 148.641 19.7873 150.025 23.9426L151.1 23.6351L150.943 17.6342ZM85.9589 17.0184C83.3481 15.481 78.7386 16.2488 76.2813 21.7894L76.4338 16.4034L66.1423 18.4037V19.327L67.2175 19.4807C68.6014 19.6354 69.2144 20.404 69.3688 22.4052C69.6757 26.0984 69.5222 32.5623 69.3688 35.7933C69.2144 37.6381 68.6014 38.5614 67.2175 38.716L66.1423 38.8706V40.1014H80.4286V38.8706L78.5851 38.716C77.0495 38.5614 76.5882 37.6381 76.4338 35.7933C76.1269 32.8688 76.1269 27.0217 76.2813 23.3285C77.0486 22.2506 80.4286 21.3282 83.5007 23.3285L85.9589 17.0184Z" fill="#AEAEAE"/>
</svg>
