<svg width="143" height="53" viewBox="0 0 143 53" fill="none" xmlns="http://www.w3.org/2000/svg">
<path d="M37.3999 27.8819L39.5967 26.735V9.3035H37.9341L33.8738 14.736H33.4164L33.6729 8.62659H51.2735L51.5299 14.7403H51.0427L47.0678 9.30782H45.3582V26.6919L47.5679 27.869V28.4596H37.3999V27.8819ZM53.2481 27.1145V7.80309L51.5385 7.11325V6.75539L57.7016 5.60852H58.3769V14.7748L58.5223 14.6282C59.9989 13.3616 61.871 12.6608 63.8093 12.6493C66.5105 12.6493 67.7029 14.1885 67.7029 17.0556V27.1145L69.1476 27.9078V28.4596H61.0824V27.9078L62.5313 27.1101V17.0211C62.5313 15.4431 61.8475 14.8136 60.5695 14.8136C59.7976 14.797 59.0433 15.0481 58.4325 15.525V27.1403L59.8558 27.9336V28.4596H51.7863V27.9336L53.2481 27.1145ZM73.5328 21.1818C73.6994 24.3723 75.1184 26.8428 78.4778 26.8428C80.102 26.8428 81.256 26.084 82.3245 25.5062V26.1357C80.8696 27.9255 78.6864 28.9504 76.3921 28.921C71.1863 28.921 68.5278 26.0021 68.5278 20.949C68.5278 16.0079 71.4385 12.9295 76.1399 12.9295C80.5636 12.9295 82.8587 15.1586 82.8587 21.0352V21.1861L73.5328 21.1818ZM73.4473 20.4445L78.0376 20.1643C78.0376 16.2106 77.3666 13.5849 76.0203 13.5849C74.5842 13.5892 73.4473 16.6374 73.4473 20.4488V20.4445ZM8.76367 36.1902C8.76367 27.7871 14.2772 24.7948 20.419 24.7948C23.0262 24.7948 25.4838 25.226 26.86 25.7908L26.9797 31.6545H26.3942L22.7911 25.9805C22.0668 25.6886 21.2873 25.562 20.5088 25.6097C17.2434 25.6097 15.5722 29.4168 15.6278 35.6556C15.6876 43.1189 16.9741 46.512 19.9703 46.512C20.5839 46.5325 21.1955 46.4299 21.7696 46.2102V38.2166L19.7907 37.0827V36.4015H29.3475V37.1172L27.3986 38.2166V46.1068C25.0794 46.9356 22.6358 47.3542 20.1754 47.3442C13.1959 47.3442 8.76367 44.0803 8.76367 36.1902H8.76367ZM28.4585 32.271V31.7838L34.8696 30.6413L35.5748 30.7016V43.481C35.5748 45.0202 36.31 45.4945 37.5409 45.4945C38.3506 45.5063 39.1203 45.1403 39.6266 44.5029V33.0385L37.8657 32.2667V31.7666L44.2768 30.624L44.9222 30.6844V45.3436L46.6532 46.0766V46.5422L40.3661 47.3183L39.7207 47.2579V45.3307H39.5454C38.2543 46.6027 36.5328 47.3331 34.7286 47.3743C31.647 47.3743 30.2365 45.5376 30.2365 42.7524V33.0385L28.4585 32.271ZM68.7501 30.6154L69.2801 30.6758V35.4185H69.4254C70.1135 31.9692 71.6265 30.6758 73.4772 30.6758C73.746 30.6631 74.0149 30.7041 74.2679 30.7965V35.5995C73.8341 35.5071 73.3904 35.468 72.9472 35.4831C71.7445 35.4515 70.5499 35.6916 69.451 36.1859V45.5376L70.9128 46.3568V46.9992H62.5783V46.3611L64.0785 45.5376V32.7712L62.3176 32.2409V31.8097L68.7501 30.6154ZM84.8761 31.0121V26.0236L83.1152 25.4028V25.0104L89.6032 23.8075L90.2187 23.898V45.3221L92.0095 45.9774V46.5293L85.5984 47.3916L85.0984 47.3312V45.5678H84.953C83.8456 46.7523 82.2929 47.4086 80.679 47.3743C77.1828 47.3743 74.6312 44.6796 74.6312 39.1824C74.6312 33.3748 77.5974 30.5206 82.0894 30.5206C83.043 30.4714 83.9957 30.6394 84.8761 31.0121ZM84.8761 44.7357V31.9089C84.3846 31.488 83.7439 31.2872 83.1024 31.3527C81.3671 31.413 80.2943 34.056 80.2943 38.7685C80.2943 43.0025 81.0637 45.3738 83.3759 45.2919C83.926 45.2953 84.459 45.0978 84.8761 44.7357ZM99.0403 30.6154L99.596 30.6758V45.5376L101.062 46.3568V46.9992H92.7276V46.3611L94.2235 45.5376V33.0083L92.4326 32.2969V31.8011L99.0403 30.6154ZM99.6259 26.5971C99.5772 28.1385 98.3078 29.3534 96.7794 29.322C95.7724 29.3621 94.8244 28.843 94.3094 27.9694C93.7939 27.0958 93.7939 26.0078 94.3094 25.1342C94.8244 24.2606 95.7724 23.7415 96.7794 23.7816C98.3308 23.7624 99.6049 25.0146 99.6259 26.5798V26.5971ZM118.342 45.5376V32.8703L116.581 32.2495V31.6372L122.992 30.4343L123.638 30.4947V32.3918H123.813C125.336 31.0786 127.272 30.3542 129.275 30.3481C132.066 30.3481 133.297 31.6804 133.297 34.6596V45.5118L134.793 46.3741V46.9992H126.446V46.3611L127.942 45.5376V34.9269C127.942 33.2972 127.236 32.6461 125.916 32.6461C125.124 32.6238 124.348 32.8731 123.714 33.3532V45.5333L125.185 46.3525V46.9992H116.846V46.3611L118.342 45.5376ZM109.272 37.5785V35.453C109.272 32.2538 108.58 31.2061 106.618 31.2061C106.396 31.2117 106.175 31.2319 105.956 31.2665L102.464 36.0393H101.972V31.6416C103.859 30.9881 105.837 30.6418 107.832 30.6154C112.106 30.6154 114.581 31.8097 114.581 35.4185V45.7661L116.111 46.1714V46.5767C115.139 47.0804 114.058 47.3309 112.965 47.3054C110.858 47.3054 109.849 46.6069 109.388 45.4428H109.238C108.345 46.6629 107.076 47.3614 105.084 47.3614C102.545 47.3614 100.81 45.7618 100.81 42.9981C100.81 40.3207 102.455 38.8677 105.802 38.2253L109.272 37.5785ZM109.272 44.7357V38.3331L108.204 38.4193C106.528 38.5659 105.926 39.6438 105.926 42.028C105.926 44.615 106.781 45.2876 107.943 45.2876C108.449 45.3342 108.945 45.1281 109.272 44.7357ZM55.1586 37.5785V35.453C55.1586 32.2538 54.4662 31.2061 52.5044 31.2061C52.2826 31.2117 52.0612 31.2319 51.8419 31.2665L48.35 36.035H47.8628V31.6416C49.7483 30.9886 51.7248 30.6422 53.7182 30.6154C57.9923 30.6154 60.467 31.8097 60.467 35.4185V45.7661L61.9971 46.1714V46.5767C61.0252 47.0804 59.9438 47.3309 58.8514 47.3054C56.7443 47.3054 55.7356 46.6069 55.274 45.4428H55.1287C54.2354 46.6629 52.966 47.3614 50.9743 47.3614C48.4355 47.3614 46.7002 45.7618 46.7002 42.9981C46.7002 40.3207 48.3457 38.8677 51.6923 38.2253L55.1586 37.5785ZM55.1586 44.7357V38.3331L54.0901 38.4193C52.4146 38.5659 51.812 39.6438 51.812 42.028C51.812 44.615 52.6668 45.2876 53.8293 45.2876C54.3354 45.3343 54.8316 45.1281 55.1586 44.7357Z" fill="#AEAEAE"/>
</svg>
