      <svg
          xmlns="http://www.w3.org/2000/svg"
          width="251"
          height="33"
          viewBox="0 0 251 33"
          fill="none"
        >
          <path
            fill-rule="evenodd"
            clip-rule="evenodd"
            d="M17.3349 0.82367C18.0661 0.82367 19.0438 1.0687 20.0215 2.05166C20.9978 2.78818 20.9979 4.26122 20.7527 5.48921C20.509 6.47077 20.2639 7.20729 19.0438 7.94381C17.8224 8.68033 16.6009 8.68032 16.6009 8.68032V13.3445L18.7987 15.309L16.6009 17.0271V23.6571C16.6009 23.6571 18.7987 22.1841 20.2639 19.2366L20.509 18.7451C20.509 19.7267 20.509 21.2011 19.5313 23.4107C19.0424 24.8837 17.8224 26.3582 16.1121 27.3397C13.4255 28.8113 11.4715 28.8113 9.2737 28.5663C6.5871 27.8298 4.14421 26.3582 2.67905 23.9022C1.45761 22.1841 0.96875 19.9731 0.96875 17.7636C1.21388 13.3431 4.38794 9.66047 8.05226 8.18743C8.54112 7.9424 8.78485 7.9424 9.51743 7.9424C9.2737 7.9424 8.78485 8.18743 8.29599 8.67891C7.07455 9.41402 6.09824 10.8885 5.60938 12.1165L12.9366 8.92395V19.2366L7.07455 22.1841C7.80714 23.1656 9.76116 24.6401 11.4701 24.6401C14.6455 25.1302 16.3544 23.6585 16.3544 23.6585V17.0285L13.9115 15.3104L16.3544 13.3459V8.68173C15.1178 8.41605 13.8953 8.08798 12.6915 7.69877C11.2263 7.45373 6.82942 6.22574 6.34057 6.22574C5.60798 5.9807 4.63027 5.98069 4.14281 6.47217C3.65536 6.96365 3.41163 7.70018 3.65396 8.4367C3.65396 8.92818 3.89909 9.17321 4.14281 9.41825C4.14281 9.41825 3.89909 9.41825 3.41163 9.17322C2.67905 8.68174 1.94506 7.70017 1.94506 6.47217C1.94506 4.99914 2.43392 3.5247 3.90049 2.54315C4.8768 1.80663 6.09824 1.31514 7.56341 1.56159C9.76116 1.80662 12.6929 3.03462 15.3795 3.77114C16.3558 4.01618 17.0884 4.01618 17.8224 3.5247C18.0661 3.27967 18.7987 2.78959 18.3112 2.05166C17.5787 1.07011 16.6009 1.07011 15.6246 0.82367C16.3572 0.578633 16.6023 0.578633 17.3349 0.82367ZM8.54252 21.2039V11.1363L5.61218 12.6094C5.61218 12.6094 4.8796 14.3274 4.8796 16.7834C5.12333 18.7479 6.10104 20.9575 6.83362 21.9405L8.54252 21.2039ZM45.6648 10.6462C45.6648 10.6462 43.2219 12.1193 41.7567 13.1022L38.3375 14.8217V24.3965L36.8724 25.3808L37.1161 25.6259L38.3375 24.6443L42.4893 28.3269L49.8166 22.6798L49.5714 22.4334L45.6634 25.6259L42.2442 22.4334V21.4518L48.8388 16.5412L45.6648 10.6462ZM45.6648 18.5029L42.2456 20.9589V12.8558L45.6648 18.5029ZM26.8599 32.0081C27.8362 32.0081 29.3014 32.2531 31.4992 31.2716C33.6969 30.045 34.6746 27.834 34.6746 25.3794L34.9183 21.9405V14.3288L36.1398 13.3473V13.1022L34.6746 14.0838L31.4992 10.6462L27.3474 14.0838V2.05308L22.2179 5.9821C22.4616 6.22714 23.1956 6.22715 23.1956 7.45514V24.3965L20.9979 25.8695L21.2416 26.1145L22.2193 25.3808L25.1496 28.0819L29.7903 24.3965L29.5451 24.1514L28.5688 25.133L27.3474 23.9064V14.5753L28.5688 13.3473L30.7666 15.8033V23.9064C30.7666 26.1145 30.7666 28.8156 29.5451 30.045C28.3251 31.5152 28.08 31.5152 26.8599 32.0081ZM58.8541 31.0265C56.9001 30.7815 56.1675 29.7999 56.1675 28.8156C56.1675 28.3255 56.9001 27.0961 57.8778 27.0961C59.0992 26.851 60.0755 27.3439 61.0532 28.5705L65.4488 23.6613H65.205L63.9836 24.8879C63.0073 23.6613 61.2984 22.6784 59.5881 22.4319V7.94522L70.5782 28.3255C70.5782 28.3255 70.822 28.5705 71.3108 28.5705C71.5546 28.5705 71.5546 28.3255 71.5546 28.3255V7.94522C72.5323 7.70018 73.7523 7.2087 74.4849 6.71722C76.6826 4.50766 75.7063 2.05307 75.4626 1.80663C75.4626 2.78959 74.4849 3.77115 73.2648 4.01618C71.5546 4.01618 70.3345 2.54315 70.3345 2.54315L66.1827 7.45374L66.4279 7.69877L67.6493 6.22574C69.1145 7.69877 70.0922 7.69877 71.3122 7.94522V19.7309L63.0087 4.7527C62.2761 3.52471 61.2998 2.29811 59.3458 2.29811C57.3917 2.29811 55.9266 4.01618 55.6828 5.73426C55.4391 7.45374 55.6828 7.94381 55.6828 7.94381C55.6828 7.94381 55.9266 5.97929 57.148 5.97929C58.3694 5.97929 58.8583 6.96084 59.3458 7.69736V12.1179C58.1243 12.1179 55.194 12.1179 55.194 15.3104C55.194 16.2919 55.9266 17.5199 56.4154 18.0114C57.148 18.5029 57.8806 18.5029 57.8806 18.5029C57.8806 18.5029 56.9029 18.0114 57.148 17.0299C57.3931 16.0483 59.3458 16.0483 59.3458 16.2934V22.4319C58.3694 22.4319 55.6828 22.4319 54.2163 24.8879C53.4837 26.3624 53.4837 28.0819 54.46 29.3085C55.1898 30.2886 56.4112 31.5152 58.8541 31.0265ZM82.2996 10.6462C82.2996 10.6462 80.1018 12.1193 78.3915 13.1022L74.9723 14.8217V24.3965L73.5072 25.3808L73.7509 25.6259L75.2161 24.6443L79.1241 28.3269L86.45 22.6798L86.2062 22.4334L82.2982 25.6259L79.1227 22.4334V21.4518L85.4722 16.5412L82.2996 10.6462ZM82.2996 18.5029L79.1241 20.9589V12.8558L82.2996 18.5029ZM92.3134 28.3255L88.6491 25.3794L87.184 26.606L86.9388 26.361L88.6491 25.1316V17.0299C88.6491 13.5923 85.4737 14.5753 85.7188 10.8913C85.7188 9.41825 87.184 8.19025 88.1603 7.69877C88.8928 7.45373 89.8706 7.45374 89.8706 7.45374C89.8706 7.45374 88.4054 8.19025 88.6491 9.66329C89.138 11.6278 92.5572 11.6278 92.8009 14.3274V23.6585L95.2438 25.6231L95.9764 25.1302V15.0639L94.5112 13.8359L97.9304 10.6434L101.106 13.5895L99.8844 14.8175V23.6571L103.06 26.1103L103.549 25.8653V15.0625L102.084 13.8345L105.503 10.642L108.921 13.3431L110.142 12.1151L110.386 12.3601L107.455 15.0611V23.6557L99.8844 28.3199L95.9764 25.3738L92.3134 28.3255ZM246.179 10.6462C246.179 10.6462 243.736 12.1193 242.272 13.1022L238.853 14.8217V24.3965L237.386 25.3808L237.633 25.6259L238.853 24.6443L243.003 28.3269L250.332 22.6798L250.085 22.4334L246.179 25.6259L242.759 22.4334V21.4518L249.355 16.5412L246.179 10.6462ZM246.179 18.5029L242.759 20.9589V12.8558L246.179 18.5029ZM212.475 14.8203H212.719L213.939 13.8374L215.893 16.0469V23.905L214.916 24.6429L218.092 28.3255L221.265 25.1316L220.045 23.6599V14.3288L220.779 13.5923L222.975 16.2934V24.15L222.243 24.8865L225.174 28.0805L228.349 25.1316L227.129 23.905V14.3288L227.861 13.5923L230.303 16.2934V23.905L229.571 24.6429L232.745 28.3255L237.141 24.15L236.899 23.905L235.921 24.8865L234.212 23.1685V14.3288L235.676 13.1008V12.8558L233.965 14.0824L231.035 10.8913L226.885 14.0824L223.952 10.8913L219.803 14.0824L216.872 10.8913L212.475 14.8203Z"
            fill="#F7F7F7"
          />
        </svg>