<svg width="37" height="27" viewBox="0 0 37 27" fill="none" xmlns="http://www.w3.org/2000/svg">
<path d="M9.152 26.992C7.616 26.992 6.272 26.704 5.12 26.128C3.968 25.488 3.04 24.656 2.336 23.632C1.696 22.608 1.184 21.392 0.8 19.984C0.416 18.576 0.224 17.104 0.224 15.568C0.224 12.432 1.024 9.488 2.624 6.736C4.288 3.984 6.848 1.808 10.304 0.207994L11.168 1.936C9.376 2.768 7.776 3.984 6.368 5.584C5.024 7.12 4.224 8.752 3.968 10.48C3.584 11.824 3.552 13.136 3.872 14.416C5.28 12.88 7.168 12.112 9.536 12.112C11.712 12.112 13.504 12.784 14.912 14.128C16.32 15.408 17.024 17.2 17.024 19.504C17.024 21.744 16.288 23.568 14.816 24.976C13.344 26.32 11.456 26.992 9.152 26.992ZM28.928 26.992C27.392 26.992 26.048 26.704 24.896 26.128C23.744 25.488 22.816 24.656 22.112 23.632C21.472 22.608 20.96 21.392 20.576 19.984C20.192 18.576 20 17.104 20 15.568C20 12.432 20.8 9.488 22.4 6.736C24.064 3.984 26.624 1.808 30.08 0.207994L30.944 1.936C29.152 2.768 27.552 3.984 26.144 5.584C24.8 7.12 24 8.752 23.744 10.48C23.36 11.824 23.328 13.136 23.648 14.416C25.056 12.88 26.944 12.112 29.312 12.112C31.488 12.112 33.28 12.784 34.688 14.128C36.096 15.408 36.8 17.2 36.8 19.504C36.8 21.744 36.064 23.568 34.592 24.976C33.12 26.32 31.232 26.992 28.928 26.992Z" fill="#D3874A"/>
</svg>
